<?xml version="1.0" standalone="no"?>
<!DOCTYPE svg PUBLIC "-//W3C//DTD SVG 20010904//EN"
 "http://www.w3.org/TR/2001/REC-SVG-20010904/DTD/svg10.dtd">
<svg version="1.0" xmlns="http://www.w3.org/2000/svg"
 width="512.000000pt" height="512.000000pt" viewBox="0 0 512.000000 512.000000"
 preserveAspectRatio="xMidYMid meet">
<metadata>
Created by potrace 1.14, written by Peter Selinger 2001-2017
</metadata>
<g transform="translate(0.000000,512.000000) scale(0.100000,-0.100000)"
fill="#000000" stroke="none">
<path d="M0 2560 l0 -2560 2560 0 2560 0 0 2560 0 2560 -2560 0 -2560 0 0
-2560z m1140 2313 c0 -5 -11 -8 -25 -8 -14 0 -25 3 -25 8 0 4 11 7 25 7 14 0
25 -3 25 -7z m1705 -1047 c152 -47 352 -238 430 -409 56 -122 71 -294 35 -409
-36 -117 -149 -252 -265 -319 -70 -40 -210 -72 -315 -70 -101 1 -327 40 -448
77 -112 34 -170 87 -198 179 -28 91 -26 258 4 355 52 166 176 440 224 491 42
45 106 81 186 106 66 20 93 23 187 19 61 -2 132 -11 160 -20z m-389 -1216
c100 -25 233 -35 303 -22 50 9 56 8 77 -13 56 -56 97 -170 118 -330 9 -66 25
-165 36 -220 31 -161 53 -455 34 -455 -15 0 -44 22 -44 34 0 8 -9 12 -24 11
-17 -2 -23 1 -20 10 3 7 -2 20 -11 29 -16 15 -15 25 14 137 51 200 40 296 -42
366 l-34 28 -6 108 c-3 65 -10 114 -17 120 -9 9 -10 -14 -5 -104 l7 -116 -53
-6 c-66 -8 -96 -30 -126 -90 -36 -71 -42 -127 -31 -275 10 -128 7 -162 -12
-133 -11 19 -29 144 -39 278 -8 124 -32 188 -84 227 -37 27 -103 26 -152 -2
-20 -12 -38 -22 -40 -22 -2 0 -6 33 -8 73 l-3 72 -2 -76 c-1 -52 -9 -91 -22
-120 -27 -61 -25 -119 11 -256 46 -175 45 -163 17 -163 -13 0 -29 5 -36 12 -9
9 -15 9 -24 0 -18 -18 -26 -15 -45 21 -15 28 -18 63 -18 282 0 231 2 257 24
340 32 122 63 185 116 234 25 23 49 41 54 41 4 0 44 -9 87 -20z m36 -437 c35
-31 58 -89 58 -144 0 -29 7 -119 16 -202 8 -82 13 -152 10 -155 -3 -3 -21 3
-39 13 -26 14 -38 15 -54 7 -12 -7 -41 -9 -71 -5 -50 6 -51 7 -72 56 -33 76
-70 233 -70 295 0 68 27 113 85 143 47 24 106 21 137 -8z m376 -22 c20 -11 43
-29 50 -41 38 -63 32 -187 -19 -363 -28 -95 -34 -107 -51 -101 -10 3 -26 0
-34 -7 -11 -9 -18 -8 -33 5 -14 13 -25 15 -38 8 -10 -5 -29 -6 -43 -3 -32 9
-38 39 -45 241 l-6 155 28 50 c15 27 39 55 53 62 36 18 95 16 138 -6z m1552
-1014 c0 -7 -9 -13 -20 -14 -20 -2 -26 8 -13 20 11 12 33 8 33 -6z m-817 -822
c-3 -9 -8 -14 -10 -11 -3 3 -2 9 2 15 9 16 15 13 8 -4z m-36 -21 c-3 -3 -12
-4 -19 -1 -8 3 -5 6 6 6 11 1 17 -2 13 -5z m-197 -40 c-6 -14 -8 -30 -4 -35 3
-5 -6 -9 -20 -9 -31 0 -35 26 -6 35 11 3 19 9 19 13 -2 15 1 22 11 22 6 0 6
-9 0 -26z m-86 -43 c-16 -32 -44 -60 -44 -43 0 10 48 72 55 72 2 0 -3 -13 -11
-29z m252 -70 c-3 -5 4 -11 16 -15 18 -4 20 -8 11 -17 -9 -9 -16 -9 -28 1 -10
8 -15 9 -15 1 0 -6 -9 -11 -20 -11 -11 0 -20 5 -20 10 0 6 9 10 20 10 11 0 20
7 20 15 0 8 5 15 11 15 5 0 8 -4 5 -9z m-96 -41 c0 -5 -7 -7 -15 -4 -8 4 -15
8 -15 10 0 2 7 4 15 4 8 0 15 -4 15 -10z"/>
<path d="M2374 3676 c-27 -27 -34 -42 -34 -74 0 -33 6 -45 31 -66 17 -14 37
-26 46 -26 30 0 83 33 102 64 32 51 35 79 11 109 -18 23 -29 27 -72 27 -44 0
-54 -4 -84 -34z"/>
<path d="M3024 3261 c-32 -14 -82 -77 -95 -119 -13 -45 0 -105 32 -145 41 -54
149 -56 196 -5 60 64 56 196 -7 253 -22 20 -95 29 -126 16z"/>
<path d="M2381 2954 c-35 -29 -39 -59 -16 -103 48 -93 177 -16 139 84 -7 17
-54 45 -78 45 -8 0 -28 -12 -45 -26z"/>
</g>
</svg>
